<svg xmlns="http://www.w3.org/2000/svg" width="56" height="62" viewBox="0 0 56 62" version="1.1">
	<path d="M 37 10.076 C 34.378 11.151, 25 19.854, 25 21.212 C 25 21.646, 26.716 22, 28.813 22 C 31.757 22, 33.291 21.306, 35.544 18.954 C 37.755 16.646, 39.194 15.980, 41.481 16.204 C 44.038 16.455, 44.546 16.968, 44.799 19.559 C 45.052 22.142, 44.246 23.423, 39.609 27.809 C 33.933 33.176, 32.276 33.814, 29.119 31.842 C 24.720 29.095, 21.951 34.451, 26.223 37.443 C 27.445 38.299, 30.353 39, 32.686 39 C 36.490 39, 37.588 38.382, 43.343 32.998 C 51.208 25.641, 52.751 22.449, 51.101 16.944 C 49.313 10.974, 42.684 7.746, 37 10.076 M 22.500 24.158 C 19.350 25.885, 10.988 34.224, 9.422 37.200 C 6.981 41.836, 7.616 45.816, 11.400 49.600 C 17.013 55.213, 22.686 54.080, 30.819 45.722 L 35.138 41.284 31.401 40.678 C 28.119 40.145, 27.196 40.494, 23.829 43.536 C 19.472 47.472, 18.003 47.766, 15.655 45.171 C 13.198 42.456, 13.545 41.401, 18.708 35.881 C 24.888 29.275, 26.286 28.579, 29.772 30.382 C 32.810 31.953, 36 31.001, 36 28.523 C 36 24.492, 27.123 21.622, 22.500 24.158" stroke="none" fill="black" fill-rule="evenodd"/>
</svg>